<svg xmlns="http://www.w3.org/2000/svg" width="92" height="92" viewBox="0 0 92 92"><defs><linearGradient id="xulwa" x1="45.81" x2="45.81" y1="4.23" y2="87.39" gradientUnits="userSpaceOnUse"><stop offset="0" stop-color="#f9ba0b"/><stop offset="1" stop-color="#f67d0f"/></linearGradient><linearGradient id="xulwc" x1="45.81" x2="45.81" y1="4.23" y2="87.39" gradientUnits="userSpaceOnUse"><stop offset="0" stop-color="#f9c10b"/><stop offset="1" stop-color="#f67d0f"/></linearGradient><clipPath id="xulwb"><path d="M4.233 45.813c0 22.965 18.618 41.58 41.58 41.58 22.964 0 41.58-18.615 41.58-41.58 0-22.963-18.616-41.579-41.58-41.579-22.962 0-41.58 18.616-41.58 41.58"/></clipPath><clipPath id="xulwd"><path d="M16.06 61.025V31.75h20.985v29.274z"/></clipPath><clipPath id="xulwe"><path d="M51.803 61.024V31.752H75.56v29.272z"/></clipPath></defs><g><g><g><path fill="#ffbf4f" d="M45.813 3.673c1.297 0 2.58.058 3.846.173L45.813 0C20.553 0 0 20.552 0 45.813c0 25.262 20.552 45.814 45.813 45.814 25.262 0 45.814-20.552 45.814-45.814l-3.846-3.845c.115 1.266.173 2.55.173 3.845 0 23.275-18.867 42.14-42.14 42.14-23.275 0-42.141-18.865-42.141-42.14zm3.846.173c20.205 1.828 36.294 17.918 38.122 38.122z"/></g><g><g><path fill="url(#xulwa)" d="M4.233 45.813c0 22.965 18.618 41.58 41.58 41.58 22.964 0 41.58-18.615 41.58-41.58 0-22.963-18.616-41.579-41.58-41.579-22.962 0-41.58 18.616-41.58 41.58"/></g><g clip-path="url(#xulwb)"><path fill="url(#xulwc)" d="M4.233 87.393V4.234h83.159v83.159z"/></g></g><g><g><path fill="#f9830e" d="M86.85 45.813c0 22.629-18.408 41.038-41.037 41.038-22.628 0-41.037-18.41-41.037-41.038 0-22.626 18.41-41.037 41.037-41.037 22.628 0 41.038 18.41 41.038 41.037zm1.084 0c0-23.225-18.895-42.12-42.12-42.12-23.226 0-42.121 18.895-42.121 42.12 0 23.226 18.895 42.122 42.12 42.122 23.226 0 42.121-18.896 42.121-42.122z"/></g></g><g opacity=".75"><g opacity=".75"><g opacity=".75"><g opacity=".75"/><g clip-path="url(#xulwd)" opacity=".75"><path fill="#fff" d="M19.127 40.9c0-4.082 3.638-6.984 7.877-6.984 3 0 5.339 1 7.106 2.81l-2.704 2.961c-.966-.81-2.099-1.81-4.202-1.81-1.667 0-3.206 1.311-3.206 2.902 0 1.432 1.068 2.212 2.403 2.741 1.036.405 1.636.654 2.67 1.03 3.568 1.278 5.806 3.584 5.806 7.076 0 4.208-4.133 7.233-8.54 7.233-3.438 0-5.706-.874-8.11-3.305l2.967-2.994c1.138 1.185 2.74 2.182 5.008 2.182 1.97 0 3.738-1.339 3.738-3.18 0-1.526-1.136-2.523-2.668-3.054-.702-.249-1.504-.499-2.437-.84-4.339-1.654-5.708-3.462-5.708-6.768"/></g></g></g></g><g opacity=".75"><g opacity=".75"><g opacity=".75"><g opacity=".75"/><g clip-path="url(#xulwe)" opacity=".75"><path fill="#fff" d="M73.26 35.414v5.112s-2.368-2.243-6.408-2.243c-4.502 0-7.872 3.71-7.872 7.92 0 4.332 3.238 8.29 7.872 8.29 2.737 0 4.707-1.03 6.542-2.243v4.923c-.733.53-3.504 1.684-6.843 1.684-7.104 0-12.583-5.642-12.583-12.284 0-6.795 5.613-12.655 12.884-12.655 3.17 0 6.408 1.496 6.408 1.496"/></g></g></g></g><g><path fill="#414042" d="M19.127 40.323c0-4.082 3.638-6.983 7.877-6.983 3 0 5.339.999 7.106 2.808l-2.703 2.962c-.967-.81-2.1-1.81-4.202-1.81-1.668 0-3.207 1.312-3.207 2.902 0 1.432 1.068 2.212 2.404 2.74 1.035.407 1.635.655 2.669 1.03 3.568 1.278 5.806 3.584 5.806 7.077 0 4.208-4.133 7.234-8.54 7.234-3.438 0-5.706-.874-8.11-3.305l2.967-2.994c1.138 1.184 2.74 2.18 5.008 2.18 1.97 0 3.738-1.338 3.738-3.177 0-1.528-1.136-2.525-2.668-3.056-.702-.247-1.504-.498-2.437-.84-4.339-1.652-5.708-3.461-5.708-6.768"/></g><g><path fill="#414042" d="M73.26 34.837v5.114s-2.368-2.245-6.408-2.245c-4.502 0-7.872 3.71-7.872 7.92 0 4.331 3.238 8.29 7.872 8.29 2.737 0 4.707-1.028 6.542-2.243v4.923c-.733.531-3.504 1.684-6.843 1.684-7.104 0-12.583-5.643-12.583-12.282 0-6.798 5.613-12.656 12.884-12.656 3.17 0 6.408 1.495 6.408 1.495"/></g><g><path fill="#fff" d="M44.636 68.442v-45.25h2.36v45.25z"/></g></g></g></svg>